# xmcd
#
# Track frame offsets:
#	150
#	22685
#	39215
#	59355
#	71867
#	85811
#	113071
#	129077
#	139540
#	151174
#	165741
#	180269
#	195099
#	203782
#	227747
#	241310
#
# Disc length: 3362 seconds
#
# Revision: 1
# Processed by: cddbd v1.5.2PL0 Copyright (c) Steve Scherf et al.
# Submitted via: audiograbber 1.83.01
#
DISCID=b90d2010
DTITLE=Various Artist - Jazz Gold 
DYEAR=2006
DGENRE=Jazz
TTITLE0=Louis Armstrong and Ella Fitzgerald - Summertime
TTITLE1=The Glenn Miller Orchestra - In The Mood
TTITLE2=Johnny Hodges - Mood Indigo
TTITLE3=Louis Armstrong - Cabaret
TTITLE4=Billie Holiday - The Man I Love
TTITLE5=The Duke Ellington Orchestra - Caravan
TTITLE6=Anita O'Day - Sing Sing Sing
TTITLE7=Louis Armstrong - What a Wonderful World
TTITLE8=Meade Lux Lewis - Honky Tonk Train Blues
TTITLE9=Billie Holiday - As Time Goes by
TTITLE10=Louis Armstrong - When The Saints Go Marching in
TTITLE11=The Glenn Miller Orchestra - Moonlight Serenade
TTITLE12=Ella Fitzgerald - A-Tisket A-Tasket
TTITLE13=Clark Terry - Mack the Knife
TTITLE14=Sam The Man Taylor - Harlem Nocturne
TTITLE15=Louis Armstrong - Hello Dolly
EXTD=YEAR: 2006
EXTT0=
EXTT1=
EXTT2=
EXTT3=
EXTT4=
EXTT5=
EXTT6=
EXTT7=
EXTT8=
EXTT9=
EXTT10=
EXTT11=
EXTT12=
EXTT13=
EXTT14=
EXTT15=
PLAYORDER=
